PathFileType	4	(X/Y/Z)	./resultDataOpenSim/trcMotMarkerGrf/sub09/qtm-15-07.trc
DataRate	CameraRate	NumFrames	NumMarkers	Units	OrigDataRate	OrigDataStartFrame	OrigNumFrames
250.000000	250.000000	14	24	m	250.000000	294	469
Frame#	Time	L.Toe.Tip			R.Toe.Tip			L.Ankle.Lat			R.Ankle.Lat			L.Ankle.Med			R.Ankle.Med			L.Heel			R.Heel			L.Knee.Lat			R.Knee.Lat			L.Knee.Med			R.Knee.Med			L.Thigh.Upper			R.Thigh.Upper			L.ASIS			R.ASIS			V.Sacral			L.Acromium			R.Acromium			C7			L.Elbow			R.Elbow			L.Wrist.Lat			R.Wrist.Lat
		X1	Y1	Z1	X2	Y2	Z2	X3	Y3	Z3	X4	Y4	Z4	X5	Y5	Z5	X6	Y6	Z6	X7	Y7	Z7	X8	Y8	Z8	X9	Y9	Z9	X10	Y10	Z10	X11	Y11	Z11	X12	Y12	Z12	X13	Y13	Z13	X14	Y14	Z14	X15	Y15	Z15	X16	Y16	Z16	X17	Y17	Z17	X18	Y18	Z18	X19	Y19	Z19	X20	Y20	Z20	X21	Y21	Z21	X22	Y22	Z22	X23	Y23	Z23	X24	Y24	Z24

294	1.172	0.19219129	-0.042726358	0.022890413	1.0813194	0.040376208	0.038568647	0.1644151	0.10080299	-0.068047775	0.93377018	0.052276801	0.070060045	0.19697335	0.10412892	0.023995928	0.94129719	0.093034808	-0.020789389	0.10716664	0.14470026	-0.026281999	0.86431953	0.032511084	0.02016979	0.48854893	0.36994178	-0.11879882	0.95482077	0.49998605	0.14303215	0.49845132	0.3571479	0.00620044	0.94250353	0.49345535	0.017242992	0.62300688	0.75585815	-0.14213943	0.68860268	0.8009495	0.22228106	0.73421788	0.83067319	-0.10253519	0.75256873	0.87386222	0.13441707	0.58441193	0.91668293	0.025399536	0.80022399	1.2979639	-0.13734984	0.74317628	1.3104066	0.18782552	0.70083109	1.3585656	0.012466934	0.7067437	0.92713081	-0.22162592	0.53233752	1.0299305	0.26216769	0.97799257	0.89318668	-0.17241392	0.53899327	0.77207801	0.34974259
295	1.176	0.19495016	-0.04055812	0.021607197	1.0815062	0.040206614	0.03831771	0.17190847	0.10502358	-0.068316783	0.93407882	0.052232888	0.069758691	0.20485049	0.10705829	0.023737273	0.94170931	0.092744918	-0.021209553	0.11600709	0.15049748	-0.02610616	0.86438646	0.032527789	0.019995704	0.50059329	0.36756931	-0.12013295	0.96110597	0.49895349	0.14216298	0.51090583	0.35449425	0.0048546123	0.94875833	0.49265627	0.016439365	0.63079272	0.75446418	-0.14200243	0.69615706	0.80129149	0.22240993	0.74135789	0.82992367	-0.10215876	0.75938551	0.87361264	0.13437825	0.59136553	0.91660149	0.025169755	0.80763178	1.2971878	-0.13738775	0.75052196	1.3098554	0.18770395	0.70793343	1.3581506	0.012246431	0.71301542	0.92660886	-0.22151614	0.54054418	1.0288004	0.2622054	0.98399079	0.8908053	-0.1719428	0.54787835	0.77087171	0.34966115
296	1.18	0.19787097	-0.038100541	0.020042854	1.0816347	0.040077769	0.038021781	0.17980286	0.10951457	-0.068617109	0.93434815	0.052161695	0.069500002	0.21301796	0.11012128	0.023535182	0.94200594	0.092486073	-0.02151503	0.12524148	0.15653009	-0.025758715	0.86441291	0.032508837	0.0198819	0.51287864	0.36523323	-0.12129168	0.96731334	0.4979863	0.14140832	0.52361593	0.35207837	0.0035355099	0.95466843	0.4917994	0.015728788	0.63851817	0.75317905	-0.14191066	0.70356284	0.80159805	0.22255018	0.74837657	0.82929478	-0.10181309	0.76610225	0.87335052	0.13440736	0.59822892	0.91660293	0.024973036	0.81495692	1.2965134	-0.13744987	0.75780398	1.3094175	0.18755626	0.71501397	1.35787	0.012003041	0.7192267	0.9261946	-0.2213663	0.5487273	1.0277484	0.26225334	0.98991521	0.88831279	-0.17151676	0.556875	0.76971439	0.34953395
297	1.184	0.20096768	-0.035243024	0.018219066	1.0817087	0.039980298	0.03783932	0.18798182	0.11423505	-0.068921977	0.93457198	0.052077124	0.069304046	0.22147132	0.11334177	0.023359276	0.94222462	0.092279095	-0.021713635	0.13488337	0.16278632	-0.025259142	0.86440884	0.032468145	0.019833846	0.52535186	0.36295196	-0.12224701	0.97337819	0.49706035	0.1407494	0.53640307	0.34981126	0.0023211408	0.96022959	0.49093467	0.015096372	0.64616416	0.75202936	-0.14179834	0.71080554	0.80185117	0.2226944	0.75530962	0.82877406	-0.10152406	0.77278279	0.87314756	0.13453416	0.6050232	0.91666634	0.024835322	0.82219739	1.2959534	-0.13755624	0.76502588	1.3090924	0.18737985	0.72209795	1.3577037	0.011746569	0.72541798	0.92589467	-0.22118618	0.55684647	1.0267486	0.26228206	0.99576297	0.88572465	-0.17113768	0.56598651	0.76861007	0.34935308
298	1.188	0.20426958	-0.031915616	0.016181718	1.0817387	0.039905822	0.037806049	0.19628864	0.1191291	-0.069167371	0.93471891	0.051996457	0.069183199	0.23019834	0.11673511	0.023189717	0.94243666	0.092136012	-0.0218454	0.14493381	0.16922925	-0.024648709	0.86438382	0.032423143	0.019842402	0.5379753	0.36076757	-0.12305898	0.97922411	0.49615857	0.14015104	0.54918429	0.34765471	0.0012469443	0.96548181	0.49011374	0.014539139	0.65372399	0.75102247	-0.14164942	0.71787792	0.80203822	0.22283488	0.76219702	0.82834343	-0.10130725	0.77943836	0.8730268	0.13475051	0.61172906	0.91681756	0.024754114	0.82933949	1.2955118	-0.13771117	0.77219615	1.3088762	0.18717534	0.72918859	1.3576332	0.011485149	0.73166109	0.92570248	-0.2210041	0.56488655	1.0257978	0.26229061	1.0015385	0.88305821	-0.17079721	0.57520523	0.76755579	0.34910469
299	1.192	0.2078514	-0.028113148	0.013966647	1.0817429	0.039844976	0.037833887	0.20465044	0.1241828	-0.069323183	0.93471697	0.051938115	0.069155638	0.23918225	0.12031045	0.023008468	0.94267371	0.09204641	-0.021936833	0.15537636	0.17582033	-0.023964648	0.86434514	0.032385518	0.01989248	0.55074214	0.35873257	-0.1238267	0.98479426	0.49529732	0.13957595	0.56197008	0.34561234	0.00031210691	0.97049144	0.48937438	0.01405139	0.66119431	0.75015376	-0.1414734	0.72476901	0.80215935	0.22297004	0.76904868	0.82800302	-0.1011601	0.78604739	0.87298176	0.13502549	0.61827739	0.91709746	0.024694062	0.83636043	1.2951878	-0.13790208	0.77932636	1.3087694	0.18694936	0.73626511	1.3576502	0.011227345	0.73797727	0.92561575	-0.22083081	0.57286091	1.0249234	0.26231034	1.007254	0.88032747	-0.17048253	0.58451694	0.7665552	0.34877468
300	1.196	0.21184615	-0.02387786	0.011642133	1.0817339	0.039794953	0.037851528	0.21312087	0.12941423	-0.069392821	0.93451522	0.051915277	0.06922751	0.24840943	0.1240789	0.022795011	0.94291463	0.09198722	-0.021990085	0.16616871	0.18253523	-0.023232629	0.86429659	0.0323575	0.019963223	0.56362979	0.3568952	-0.12460907	0.99008837	0.49451426	0.13903225	0.57477736	0.34368958	-0.0004799929	0.97533128	0.48873157	0.013617605	0.66857169	0.7494213	-0.14129067	0.73146788	0.80223582	0.22310764	0.77583905	0.82778535	-0.10106551	0.79258448	0.87301019	0.13532384	0.62457884	0.91752239	0.024612761	0.8432486	1.2949848	-0.13811901	0.78642045	1.308779	0.18670543	0.74329168	1.3577537	0.010972848	0.74429074	0.92564365	-0.22063707	0.58078605	1.0241583	0.26237006	1.0129119	0.87754394	-0.17018667	0.59391781	0.76562501	0.34835835
301	1.2	0.21640153	-0.019302536	0.0093270648	1.0817166	0.039763234	0.037862162	0.22181468	0.13482791	-0.069395364	0.93419061	0.051924107	0.069353778	0.25787392	0.12805141	0.022531426	0.94312677	0.091939313	-0.022005452	0.17725023	0.18935229	-0.02249859	0.86423655	0.032338326	0.020031663	0.57656019	0.35529947	-0.12539066	0.99514911	0.49383414	0.13855825	0.58765619	0.34191533	-0.0011427255	0.98006327	0.48817652	0.013224918	0.67585096	0.74882942	-0.14113069	0.73796769	0.8023071	0.22325816	0.78252704	0.82773729	-0.10098702	0.79904024	0.87312689	0.13561929	0.63060541	0.9180711	0.024494307	0.85001099	1.2949106	-0.13836228	0.79347387	1.3089151	0.1864411	0.75022979	1.3579483	0.01071126	0.7505183	0.925798	-0.22038882	0.58867189	1.0235161	0.26247012	1.018489	0.87472104	-0.16991812	0.6034147	0.76478303	0.34785823
302	1.204	0.2216001	-0.014465155	0.0071298527	1.08169	0.039756083	0.037880917	0.23085989	0.14042688	-0.069424528	0.93390203	0.051948994	0.069459668	0.26757839	0.13222911	0.022205818	0.94329463	0.09189358	-0.021997086	0.18857441	0.19623686	-0.021851925	0.8641594	0.032329705	0.020078845	0.5894666	0.35397771	-0.12613788	1.0000244	0.49320065	0.13817042	0.60073971	0.34033988	-0.001740643	0.98472873	0.48767681	0.012871711	0.68302167	0.74838527	-0.1410428	0.74426292	0.80241611	0.22342355	0.7890781	0.82789026	-0.10087655	0.80541947	0.87334808	0.13589821	0.63648729	0.91868643	0.024376076	0.85666078	1.2949683	-0.13863777	0.80048546	1.3091835	0.18615686	0.75706463	1.3582429	0.01044655	0.75663675	0.92608737	-0.22008383	0.59652131	1.0229862	0.26259437	1.0239528	0.87187495	-0.16969838	0.61301361	0.76403749	0.34727451
303	1.208	0.22742376	-0.0093207386	0.0051256795	1.0816457	0.039764153	0.037895038	0.24037518	0.14621917	-0.069637519	0.93372315	0.051978924	0.069505773	0.27752713	0.13660358	0.021811573	0.94342449	0.091847729	-0.021992549	0.2001243	0.20314727	-0.021403751	0.86406282	0.0323317	0.020093271	0.60238369	0.35291645	-0.12684035	1.0047669	0.49252969	0.13787394	0.61408408	0.33898252	-0.0023190534	0.9893446	0.48718087	0.012561881	0.69007239	0.74809169	-0.14109651	0.75035009	0.80259562	0.22359187	0.79548335	0.82823971	-0.10072293	0.81172513	0.87367533	0.13615303	0.64247169	0.91930294	0.024348991	0.86320258	1.2951529	-0.1389584	0.80745714	1.3095803	0.1858556	0.76382055	1.3586442	0.010214657	0.76266268	0.92651285	-0.21974813	0.60430987	1.022544	0.26272885	1.0292943	0.86902368	-0.1695396	0.62271567	0.76338967	0.34660308
304	1.212	0.23380947	-0.0037584226	0.0034043538	1.0815743	0.039768104	0.037888864	0.25042842	0.15216908	-0.070122402	0.933622	0.052006412	0.069495811	0.28771455	0.14117276	0.021353003	0.94353598	0.091800935	-0.022018262	0.21189002	0.21005077	-0.021253131	0.86395369	0.032338542	0.020070237	0.61541881	0.35205384	-0.1274748	1.0094243	0.49180018	0.13768606	0.62753993	0.33781924	-0.002831835	0.99390659	0.48663741	0.012301887	0.69700755	0.74794979	-0.14132771	0.75623616	0.80286387	0.22374253	0.80175632	0.82873601	-0.10056325	0.81794866	0.87409954	0.13637496	0.6487311	0.91989465	0.024505123	0.8696342	1.2954568	-0.13933723	0.81438401	1.3100955	0.1855369	0.77054218	1.3591509	0.010074109	0.76862935	0.92706373	-0.21941433	0.6119598	1.0221684	0.26284481	1.0345237	0.86618732	-0.16943676	0.63251691	0.762842	0.34584115
305	1.216	0.24073127	0.0022482931	0.0020804837	1.0814796	0.039757741	0.03786363	0.26102282	0.15819265	-0.070847859	0.9335552	0.05202485	0.069446545	0.29812197	0.14595072	0.020847919	0.94364668	0.091752248	-0.02208066	0.22384272	0.21692589	-0.021469593	0.86384549	0.03234297	0.020009182	0.6286442	0.35134644	-0.12800181	1.0140004	0.4909728	0.13761265	0.6409156	0.33682215	-0.0032066508	0.99840368	0.48601969	0.012101305	0.70385221	0.74799197	-0.14167914	0.76194798	0.80322977	0.22385941	0.80790868	0.82930257	-0.10042659	0.8240819	0.87461204	0.13655834	0.65525164	0.92048297	0.024853389	0.87595536	1.2958736	-0.13977161	0.821256	1.3107244	0.18520154	0.7772545	1.3597538	0.010064472	0.77457559	0.92772393	-0.21911186	0.61936006	1.0218652	0.26288373	1.0396402	0.86338698	-0.16938209	0.64240736	0.76240339	0.34499079
306	1.22	0.24821511	0.0086102832	0.0012324061	1.0813807	0.039737388	0.037830286	0.27210077	0.16420183	-0.071729409	0.93350288	0.052033985	0.069377366	0.30872481	0.15095652	0.020315375	0.94376789	0.091703128	-0.022165784	0.235931	0.22375021	-0.022084156	0.86375176	0.032343721	0.019915995	0.64203723	0.35081151	-0.12841259	1.0184545	0.48996849	0.13763308	0.65416687	0.33600748	-0.0034413888	1.0028303	0.48533181	0.011965335	0.71063255	0.74829974	-0.14201385	0.76753228	0.80369687	0.22393968	0.81394733	0.82989863	-0.10030571	0.8301417	0.8752071	0.13671121	0.66188024	0.92108701	0.025260599	0.88216287	1.2964006	-0.14024248	0.82806664	1.311471	0.18485447	0.78392048	1.360445	0.010127781	0.78052631	0.92848767	-0.21886615	0.62646814	1.0216717	0.26281172	1.0446277	0.86064456	-0.16937236	0.65237584	0.76208772	0.34405649
307	1.224	0.25628571	0.015192678	0.0008477312	1.0812986	0.039715457	0.037800997	0.28354731	0.17012262	-0.072682878	0.93347647	0.05203549	0.069298802	0.31949811	0.15619932	0.019763111	0.94390803	0.091658055	-0.022254656	0.24809505	0.23049128	-0.023087493	0.86368301	0.032347388	0.019805899	0.65551656	0.3504872	-0.12872614	1.0227204	0.4887887	0.13769674	0.66736208	0.33545277	-0.0036000267	1.0071825	0.48459379	0.011888791	0.71735957	0.74894007	-0.14220509	0.7730417	0.80425719	0.22398923	0.81990374	0.83058281	-0.10017295	0.83617036	0.87587742	0.13685296	0.66838582	0.92167474	0.025449724	0.88825128	1.2970393	-0.1407292	0.83481394	1.3123402	0.1845	0.79045986	1.3612268	0.010116623	0.78645702	0.92936482	-0.21867355	0.63342011	1.0216288	0.26269661	1.0494701	0.85798344	-0.16941089	0.66241635	0.76190763	0.34304109
